<svg width="158" height="158" viewBox="0 0 158 158" fill="none" xmlns="http://www.w3.org/2000/svg">
<g filter="url(#filter0_f_6_4672)">
<circle cx="79.1887" cy="78.6492" r="47.9091" fill="url(#paint0_linear_6_4672)"/>
</g>
<g filter="url(#filter1_f_6_4672)">
<circle cx="95.6647" cy="60.0697" r="35.0555" fill="url(#paint1_linear_6_4672)"/>
</g>
<g filter="url(#filter2_f_6_4672)">
<path d="M42.0213 101.479C43.1463 90.1319 45.9614 61.9482 46.576 57.8288C47.3484 52.6513 53.6929 53.794 53.6929 53.794L55.0515 106.188H46.2054C45.0165 106.188 43.8827 105.676 43.0859 104.777C42.2891 103.878 41.9019 102.684 42.0213 101.479Z" fill="url(#paint2_linear_6_4672)"/>
<path d="M113.589 107.51C116.352 107.451 118.544 105.164 118.485 102.402L117.583 59.8668C117.533 57.5202 115.653 55.6242 113.307 55.5546L51.5721 53.7231C49.7361 53.6685 48.2198 55.1451 48.2254 56.9818L48.3735 105.751C48.3787 107.477 49.7986 108.863 51.5241 108.826L113.589 107.51Z" fill="url(#paint3_linear_6_4672)"/>
<path d="M117.568 103.939C118.452 103.925 119.119 103.133 118.982 102.26C118.071 96.468 115.211 76.5456 116.129 60.0043C116.17 59.25 115.586 58.6085 114.831 58.5844L52.8181 56.6062C51.9679 56.579 51.2553 57.243 51.2231 58.0932C50.9594 65.0475 49.9771 93.6855 51.2622 103.866C51.3404 104.485 51.8732 104.945 52.4977 104.936L117.568 103.939Z" fill="url(#paint4_linear_6_4672)"/>
<path d="M116.001 103.287C116.852 103.274 117.494 102.512 117.362 101.671C116.486 96.0976 113.733 76.9254 114.616 61.0069C114.656 60.281 114.094 59.6637 113.367 59.6405L53.6897 57.7368C52.8714 57.7107 52.1857 58.3496 52.1547 59.1678C51.9009 65.8602 50.9556 93.4199 52.1923 103.217C52.2676 103.813 52.7804 104.256 53.3812 104.247L116.001 103.287Z" fill="#91B3FA"/>
<path opacity="0.72" d="M79.3219 69.7545L79.413 74.0525C79.427 74.7085 78.9009 75.2489 78.2448 75.2526L73.8363 75.2774C73.1945 75.2811 72.6685 74.769 72.6548 74.1272L72.559 69.6088C72.5446 68.9296 73.1073 68.3797 73.786 68.4099L78.199 68.6055C78.8175 68.6329 79.3087 69.1355 79.3219 69.7545Z" fill="white"/>
<path opacity="0.72" d="M94.7349 75.2163L90.3264 75.2413C89.6846 75.2449 89.1586 74.7328 89.1449 74.091L89.0634 70.2479C89.0491 69.5727 89.6055 69.0243 90.2805 69.0486L94.6928 69.2071C95.3153 69.2294 95.8123 69.7337 95.8254 70.3565L95.9031 74.0162C95.917 74.6723 95.391 75.2126 94.7349 75.2163Z" fill="white"/>
<path opacity="0.72" d="M90.8722 94.3605L95.0657 94.3199C95.7682 94.313 96.3453 94.8727 96.3603 95.5751L96.4435 99.5021C96.4583 100.2 95.9128 100.781 95.2157 100.811L91.0251 100.988C90.3069 101.018 89.704 100.453 89.6887 99.7339L89.6025 95.6701C89.5874 94.9563 90.1581 94.3675 90.8722 94.3605Z" fill="white"/>
<path opacity="0.72" d="M97.9272 99.4077L97.8457 95.5681C97.8308 94.8665 98.392 94.2878 99.0937 94.281L103.331 94.2399C104.022 94.2332 104.589 94.7833 104.604 95.4736L104.682 99.1751C104.697 99.8607 104.16 100.432 103.475 100.461L99.2407 100.64C98.5348 100.67 97.9422 100.114 97.9272 99.4077Z" fill="white"/>
<path opacity="0.72" d="M97.5596 82.0736L97.4927 78.9217C97.4766 78.1605 98.09 77.5352 98.8513 77.5365L102.898 77.5438C103.635 77.5451 104.236 78.1347 104.251 78.8715L104.315 81.8837C104.331 82.6266 103.746 83.2438 103.004 83.2682L98.9601 83.4005C98.2053 83.4252 97.5756 82.8286 97.5596 82.0736Z" fill="white"/>
<path opacity="0.72" d="M97.754 91.2329L97.6518 86.4119C97.637 85.7216 98.1805 85.148 98.8707 85.1254L103.009 84.99C103.764 84.9653 104.393 85.5618 104.409 86.3169L104.513 91.1789C104.528 91.8853 103.959 92.466 103.253 92.4661L99.0143 92.4665C98.3285 92.4667 97.7685 91.9185 97.754 91.2329Z" fill="white"/>
<path d="M86.4903 75.2625L82.0819 75.2874C81.4401 75.2911 80.914 74.779 80.9004 74.1372L80.8117 69.9511C80.7973 69.2759 81.3538 68.7276 82.0287 68.7518L86.441 68.9103C87.0635 68.9327 87.5605 69.437 87.5737 70.0598L87.6586 74.0625C87.6725 74.7185 87.1464 75.2588 86.4903 75.2625Z" fill="url(#paint5_linear_6_4672)"/>
<path opacity="0.72" d="M89.5081 91.2122L89.4124 86.7032C89.3975 86.0009 89.9504 85.4173 90.6526 85.3943L94.844 85.2571C95.5576 85.2338 96.1529 85.7978 96.1681 86.5117L96.2666 91.1574C96.2819 91.876 95.7035 92.4669 94.9846 92.467L90.7903 92.4675C90.0926 92.4675 89.5228 91.9098 89.5081 91.2122Z" fill="white"/>
<path opacity="0.72" d="M81.9671 77.5061L86.7813 77.5148C87.3098 77.5157 87.7408 77.9385 87.752 78.4668L87.8439 82.8025C87.8552 83.3352 87.4358 83.7778 86.9033 83.7952L82.0927 83.9526C81.5514 83.9704 81.0999 83.5426 81.0884 83.0012L80.993 78.4993C80.9814 77.9536 81.4212 77.5051 81.9671 77.5061Z" fill="white"/>
<path opacity="0.72" d="M79.5115 78.6953L79.5992 82.8245C79.6134 83.494 79.0862 84.0503 78.4169 84.0722L74.1056 84.2133C73.4254 84.2356 72.8579 83.698 72.8434 83.0175L72.7527 78.7393C72.7381 78.0533 73.2909 77.4897 73.9771 77.4909L78.2915 77.4987C78.9558 77.5 79.4975 78.0312 79.5115 78.6953Z" fill="white"/>
<path opacity="0.72" d="M95.143 83.5254L90.3323 83.6829C89.791 83.7006 89.3395 83.2728 89.3281 82.7314L89.2386 78.5142C89.227 77.9684 89.6668 77.5199 90.2128 77.5209L95.027 77.5296C95.5554 77.5306 95.9865 77.9533 95.9977 78.4816L96.0836 82.5327C96.0948 83.0654 95.6755 83.508 95.143 83.5254Z" fill="white"/>
<path opacity="0.72" d="M82.413 85.6635L86.6044 85.5263C87.318 85.503 87.9133 86.0669 87.9284 86.7808L88.0213 91.1577C88.0365 91.8764 87.4581 92.4673 86.7393 92.4673L82.545 92.4678C81.8473 92.4679 81.2775 91.9102 81.2627 91.2126L81.1728 86.9724C81.1579 86.2701 81.7108 85.6865 82.413 85.6635Z" fill="white"/>
<path opacity="0.72" d="M74.0282 85.9378L78.513 85.791C79.145 85.7703 79.6721 86.2698 79.6855 86.902L79.779 91.3084C79.7925 91.9449 79.2803 92.4681 78.6438 92.4681L74.1558 92.4686C73.538 92.4687 73.0333 91.9748 73.0202 91.3571L72.9299 87.0969C72.9167 86.475 73.4064 85.9581 74.0282 85.9378Z" fill="white"/>
<path opacity="0.72" d="M102.363 75.1158L99.0168 75.1347C98.1268 75.1397 97.3974 74.4297 97.3786 73.5399L97.32 70.7795C97.3023 69.9454 97.9897 69.268 98.8235 69.298L102.547 69.4317C103.392 69.462 104.066 70.1464 104.084 70.9917L104.133 73.297C104.154 74.2912 103.357 75.1102 102.363 75.1158Z" fill="white"/>
<path opacity="0.72" d="M106.092 95.5849C106.076 94.8298 106.679 94.207 107.435 94.1997L108.892 94.1856C110 94.1748 110.906 94.907 110.925 95.8291L110.982 98.4976C111.001 99.4122 110.141 100.179 109.044 100.225L107.479 100.291C106.773 100.321 106.18 99.7651 106.165 99.0587L106.092 95.5849Z" fill="white"/>
<path opacity="0.72" d="M59.2234 94.6681L62.0898 94.6403C62.7929 94.6335 63.3706 95.1936 63.3855 95.8965L63.4916 100.897C63.5064 101.595 62.9603 102.177 62.2627 102.206L59.4092 102.327C58.2715 102.375 57.3169 101.633 57.2968 100.685L57.2059 96.3975C57.186 95.4573 58.0938 94.6791 59.2234 94.6681Z" fill="white"/>
<path opacity="0.72" d="M108.776 92.4659L107.353 92.466C106.615 92.4661 106.013 91.8762 105.997 91.1384L105.893 86.2375C105.877 85.4946 106.462 84.8773 107.205 84.8531L108.637 84.8062C109.766 84.7692 110.706 85.5083 110.726 86.4485L110.817 90.7363C110.837 91.6842 109.915 92.4657 108.776 92.4659Z" fill="white"/>
<path opacity="0.72" d="M108.657 83.0825L106.865 83.1411C106.295 83.1598 105.818 82.7086 105.806 82.1376L105.731 78.5977C105.719 78.0221 106.183 77.5491 106.759 77.5501L108.567 77.5534C109.664 77.5554 110.553 78.284 110.572 79.1971L110.618 81.3542C110.638 82.2763 109.764 83.0462 108.657 83.0825Z" fill="white"/>
<path d="M58.7655 67.8599L61.64 67.9632C62.2876 67.9864 62.8046 68.511 62.8183 69.1589L62.9231 74.0977C62.9375 74.7801 62.3904 75.3422 61.7078 75.346L58.748 75.3628C57.644 75.369 56.7443 74.6381 56.7248 73.7192L56.6372 69.588C56.6165 68.6113 57.5937 67.8178 58.7655 67.8599Z" fill="#7D97F4"/>
<path opacity="0.72" d="M82.6286 94.4406L86.822 94.3999C87.5245 94.3931 88.1017 94.9528 88.1166 95.6551L88.2055 99.8509C88.2203 100.548 87.6748 101.13 86.9776 101.159L82.7871 101.337C82.0689 101.367 81.466 100.801 81.4508 100.083L81.3588 95.7501C81.3437 95.0363 81.9145 94.4475 82.6286 94.4406Z" fill="white"/>
<path opacity="0.72" d="M58.8864 77.4641L61.7999 77.4693C62.4641 77.4706 63.0058 78.0019 63.0199 78.6659L63.1195 83.3643C63.1338 84.0338 62.6067 84.5901 61.9373 84.612L59.012 84.7078C57.8829 84.7447 56.9429 84.0057 56.923 83.0654L56.8408 79.1937C56.8207 78.2442 57.7457 77.4621 58.8864 77.4641Z" fill="white"/>
<path opacity="0.72" d="M58.9927 86.4301L62.0338 86.3306C62.6657 86.3099 63.1929 86.8093 63.2063 87.4415L63.2883 91.3105C63.3018 91.9469 62.7896 92.4701 62.1531 92.4702L59.0975 92.4705C57.9989 92.4706 57.1073 91.7414 57.0878 90.8269L57.0312 88.1584C57.0116 87.2362 57.8855 86.4663 58.9927 86.4301Z" fill="white"/>
<path opacity="0.72" d="M71.4459 87.1723L71.5337 91.31C71.5472 91.9464 71.035 92.4697 70.3984 92.4698L65.9105 92.4703C65.2926 92.4703 64.7881 91.9764 64.775 91.3587L64.6903 87.3672C64.6771 86.7454 65.1668 86.2285 65.7885 86.2082L70.2734 86.0614C70.9054 86.0407 71.4325 86.5402 71.4459 87.1723Z" fill="white"/>
<path opacity="0.72" d="M66.1422 94.5998L70.3335 94.5591C71.0366 94.5523 71.6143 95.1124 71.6292 95.8153L71.7295 100.547C71.7444 101.245 71.1983 101.827 70.5007 101.856L66.3122 102.033C65.5934 102.064 64.99 101.498 64.9747 100.778L64.8715 95.9104C64.8563 95.196 65.4276 94.6067 66.1422 94.5998Z" fill="white"/>
<path opacity="0.72" d="M108.421 75.0818L106.667 75.0918C106.107 75.0949 105.648 74.6479 105.636 74.0877L105.562 70.6254C105.55 70.036 106.035 69.5573 106.625 69.5785L108.483 69.6452C109.546 69.6834 110.386 70.4009 110.405 71.2873L110.449 73.3523C110.469 74.2958 109.555 75.0754 108.421 75.0818Z" fill="white"/>
<path opacity="0.72" d="M74.386 94.5203L78.5068 94.4803C79.2489 94.4731 79.8587 95.0643 79.8744 95.8063L79.9676 100.198C79.9824 100.896 79.4364 101.478 78.7386 101.508L74.5502 101.685C73.8314 101.716 73.228 101.149 73.2127 100.43L73.1152 95.8309C73.1 95.1164 73.6713 94.5272 74.386 94.5203Z" fill="white"/>
<path opacity="0.72" d="M71.07 69.4547L71.1675 74.0506C71.182 74.733 70.6348 75.295 69.9522 75.2989L65.6385 75.3233C64.9708 75.3271 64.4235 74.7944 64.4093 74.1268L64.3081 69.3515C64.2932 68.6491 64.872 68.0787 65.5742 68.1039L69.8917 68.2589C70.5394 68.2822 71.0563 68.8069 71.07 69.4547Z" fill="white"/>
<path opacity="0.72" d="M71.2656 78.6804L71.3592 83.0942C71.3735 83.7638 70.8463 84.3201 70.177 84.342L65.8657 84.4831C65.1855 84.5053 64.618 83.9677 64.6036 83.2872L64.5068 78.7245C64.4922 78.0385 65.045 77.4749 65.7312 77.4761L70.0456 77.4839C70.7098 77.4851 71.2515 78.0164 71.2656 78.6804Z" fill="white"/>
<path d="M108.899 65.9224L108.701 67.3778C108.637 67.8438 108.244 68.1944 107.774 68.2044L107.705 68.2058C107.177 68.217 106.74 67.7982 106.729 67.2703L106.697 65.7805C106.685 65.2031 107.184 64.7468 107.758 64.81L108.057 64.8429C108.591 64.9017 108.972 65.3896 108.899 65.9224Z" fill="white"/>
<path d="M102.144 65.5468L101.946 67.0022C101.882 67.4683 101.489 67.8188 101.019 67.8288L100.95 67.8303C100.422 67.8414 99.985 67.4226 99.9738 66.8947L99.9422 65.4049C99.9299 64.8275 100.429 64.3712 101.003 64.4344L101.302 64.4673C101.836 64.5261 102.217 65.0141 102.144 65.5468Z" fill="white"/>
<path d="M93.8326 65.6612L93.634 67.1166C93.5704 67.5826 93.1773 67.9332 92.707 67.9432L92.6383 67.9446C92.1104 67.9558 91.6734 67.5369 91.6622 67.0091L91.6306 65.5193C91.6183 64.9419 92.1169 64.4856 92.691 64.5488L92.99 64.5817C93.5245 64.6405 93.9053 65.1284 93.8326 65.6612Z" fill="white"/>
<path d="M85.7347 65.2985L85.5361 66.7539C85.4726 67.2199 85.0795 67.5704 84.6092 67.5804L84.5405 67.5818C84.0126 67.5931 83.5755 67.1742 83.5644 66.6463L83.5328 65.1565C83.5205 64.5792 84.0191 64.1228 84.5931 64.186L84.8921 64.2189C85.4266 64.2777 85.8075 64.7656 85.7347 65.2985Z" fill="white"/>
<path d="M77.4173 64.2417L77.2186 65.6971C77.155 66.1631 76.7619 66.5137 76.2917 66.5237L76.2229 66.5251C75.6951 66.5363 75.2581 66.1174 75.2469 65.5895L75.2152 64.0999C75.203 63.5224 75.7016 63.0661 76.2756 63.1293L76.5746 63.1622C77.1091 63.221 77.49 63.7089 77.4173 64.2417Z" fill="white"/>
<path d="M68.6063 64.4285L68.4077 65.8839C68.344 66.3499 67.9509 66.7005 67.4807 66.7104L67.4119 66.7119C66.8841 66.7231 66.4471 66.3042 66.4359 65.7764L66.4043 64.2866C66.392 63.7092 66.8906 63.2529 67.4646 63.316L67.7636 63.349C68.2981 63.4078 68.679 63.8957 68.6063 64.4285Z" fill="white"/>
<path d="M61.1694 64.2725L60.9708 65.7279C60.9072 66.1939 60.5141 66.5445 60.0438 66.5544L59.9751 66.5559C59.4472 66.5671 59.0102 66.1482 58.999 65.6204L58.9674 64.1306C58.9552 63.5532 59.4537 63.0969 60.0278 63.1601L60.3268 63.193C60.8613 63.2518 61.2421 63.7397 61.1694 64.2725Z" fill="white"/>
<path d="M73.0621 80.705C73.0804 80.3905 73.409 80.2557 73.651 80.4463C74.3346 80.9846 74.6125 81.821 74.9493 82.6009C75.3418 83.5098 75.718 84.4258 76.0523 85.3578C76.4047 86.3404 76.705 87.3407 76.9338 88.3564C77.3874 87.1432 77.9146 85.9614 78.5832 84.8402C78.7607 84.5425 79.262 84.7166 79.1626 85.0702C78.5844 87.1256 77.8729 89.1392 77.3283 91.2051C77.1362 91.934 76.1392 91.7618 76.065 91.0613C75.8623 89.1482 75.4002 87.318 74.7444 85.5111C74.4326 84.652 74.0845 83.8064 73.7239 82.9669C73.4044 82.2235 73.014 81.5305 73.0621 80.705Z" fill="url(#paint6_linear_6_4672)"/>
<path d="M72.1229 82.2288C72.7176 82.1175 72.9338 82.8787 72.3886 83.1186C68.7805 84.706 68.3087 89.1792 70.9153 91.8877C72.1209 93.1405 73.7205 94.1128 75.2351 94.9487C76.7714 95.7964 78.4863 96.444 80.269 96.2649C84.4013 95.8498 84.9631 91.6439 83.7276 88.3985C82.5393 85.277 79.9943 82.8672 76.8786 81.7121C76.4761 81.5629 76.632 80.9077 77.0446 81.0556C79.968 82.104 82.4561 84.172 83.9975 86.8782C85.4154 89.3674 86.266 92.8786 84.41 95.3774C82.4895 97.9631 78.844 98.0094 76.0974 96.9314C73.0762 95.7458 69.3145 93.5461 68.1118 90.3539C66.8518 87.0099 68.4068 82.9241 72.1229 82.2288Z" fill="url(#paint7_linear_6_4672)"/>
<path d="M48.2255 105.381C48.3115 105.381 48.3814 105.312 48.382 105.226L48.5722 77.7643C48.5728 77.6778 48.5032 77.6073 48.4167 77.6067C48.4164 77.6067 48.416 77.6067 48.416 77.6067C48.3297 77.6067 48.2598 77.676 48.2591 77.7621L48.0689 105.223C48.0683 105.31 48.1379 105.38 48.2244 105.381C48.2244 105.381 48.2251 105.381 48.2255 105.381Z" fill="white"/>
<path d="M48.4593 71.6141C48.5453 71.6141 48.6152 71.5447 48.6158 71.4586L48.6823 61.8677C48.6829 61.7812 48.6133 61.7107 48.5268 61.7101C48.5264 61.7101 48.5261 61.7101 48.5261 61.7101C48.4398 61.7101 48.3698 61.7794 48.3692 61.8655L48.3028 71.4565C48.3022 71.5429 48.3718 71.6135 48.4582 71.614L48.4593 71.6141Z" fill="#91B3FA"/>
<path d="M107.235 63.5624C108.159 63.5624 108.908 62.8133 108.908 61.8892C108.908 60.9651 108.159 60.216 107.235 60.216C106.311 60.216 105.562 60.9651 105.562 61.8892C105.562 62.8133 106.311 63.5624 107.235 63.5624Z" fill="url(#paint8_linear_6_4672)"/>
<path d="M93.5258 63.4328C94.4499 63.4328 95.199 62.6837 95.199 61.7596C95.199 60.8355 94.4499 60.0864 93.5258 60.0864C92.6017 60.0864 91.8526 60.8355 91.8526 61.7596C91.8526 62.6837 92.6017 63.4328 93.5258 63.4328Z" fill="url(#paint9_linear_6_4672)"/>
<path d="M79.6879 62.982C80.612 62.982 81.3611 62.2329 81.3611 61.3088C81.3611 60.3847 80.612 59.6356 79.6879 59.6356C78.7638 59.6356 78.0147 60.3847 78.0147 61.3088C78.0147 62.2329 78.7638 62.982 79.6879 62.982Z" fill="url(#paint10_linear_6_4672)"/>
<path d="M65.9784 62.3381C66.9025 62.3381 67.6516 61.589 67.6516 60.6649C67.6516 59.7408 66.9025 58.9917 65.9784 58.9917C65.0544 58.9917 64.3052 59.7408 64.3052 60.6649C64.3052 61.589 65.0544 62.3381 65.9784 62.3381Z" fill="url(#paint11_linear_6_4672)"/>
<path d="M64.7059 49.0715C67.5216 49.6858 67.2559 57.0935 67.0294 60.1009C66.976 60.8086 66.3866 61.3546 65.6769 61.3546C65.4799 61.3546 65.2922 61.2697 65.1606 61.1231C65.029 60.9765 64.9661 60.7803 64.9871 60.5844C65.2303 58.3113 65.7478 51.7654 63.675 51.4153C63.675 51.4153 62.1881 51.1522 61.9379 54.0324H60.3293C60.3293 54.0324 61.166 48.2991 64.7059 49.0715Z" fill="url(#paint12_linear_6_4672)"/>
<path d="M78.4151 49.4525C81.2308 50.0668 80.9651 57.4772 80.7386 60.4846C80.6852 61.1923 80.0958 61.7395 79.3861 61.7395C79.1891 61.7395 79.0014 61.6553 78.8698 61.5087C78.7382 61.3621 78.6753 61.1662 78.6963 60.9703C78.9395 58.6973 79.457 52.1462 77.3841 51.7962C77.3841 51.7962 75.8973 51.5906 75.6471 54.4082H74.0385C74.0385 54.4082 74.8752 48.6802 78.4151 49.4525Z" fill="url(#paint13_linear_6_4672)"/>
<path d="M92.1246 49.8353C94.9403 50.4497 94.6746 57.8617 94.448 60.8691C94.3947 61.5768 93.8053 62.1249 93.0956 62.1249C92.8986 62.1249 92.7108 62.0412 92.5792 61.8946C92.4476 61.748 92.3847 61.5523 92.4057 61.3564C92.6489 59.0833 93.1664 52.529 91.0936 52.1789C91.0936 52.1789 89.6074 52.0115 89.3573 54.8435L87.7479 54.7876C87.7479 54.7876 88.5846 49.0629 92.1246 49.8353Z" fill="url(#paint14_linear_6_4672)"/>
<path d="M105.834 50.2774C108.649 50.8917 108.384 58.3077 108.157 61.3152C108.104 62.0229 107.515 62.573 106.805 62.573C106.608 62.573 106.42 62.4902 106.288 62.3436C106.157 62.197 106.094 62.0018 106.115 61.8059C106.358 59.5328 106.876 52.9708 104.803 52.6208C104.803 52.6208 103.316 52.4042 103.066 55.2217H101.457C101.457 55.2217 102.294 49.505 105.834 50.2774Z" fill="url(#paint15_linear_6_4672)"/>
</g>
<defs>
<filter id="filter0_f_6_4672" x="0.823021" y="0.283576" width="156.731" height="156.731" filterUnits="userSpaceOnUse" color-interpolation-filters="sRGB">
<feFlood flood-opacity="0" result="BackgroundImageFix"/>
<feBlend mode="normal" in="SourceGraphic" in2="BackgroundImageFix" result="shape"/>
<feGaussianBlur stdDeviation="15.2283" result="effect1_foregroundBlur_6_4672"/>
</filter>
<filter id="filter1_f_6_4672" x="45.381" y="9.78597" width="100.567" height="100.567" filterUnits="userSpaceOnUse" color-interpolation-filters="sRGB">
<feFlood flood-opacity="0" result="BackgroundImageFix"/>
<feBlend mode="normal" in="SourceGraphic" in2="BackgroundImageFix" result="shape"/>
<feGaussianBlur stdDeviation="7.61414" result="effect1_foregroundBlur_6_4672"/>
</filter>
<filter id="filter2_f_6_4672" x="40" y="46.9999" width="81" height="63.8272" filterUnits="userSpaceOnUse" color-interpolation-filters="sRGB">
<feFlood flood-opacity="0" result="BackgroundImageFix"/>
<feBlend mode="normal" in="SourceGraphic" in2="BackgroundImageFix" result="shape"/>
<feGaussianBlur stdDeviation="1" result="effect1_foregroundBlur_6_4672"/>
</filter>
<linearGradient id="paint0_linear_6_4672" x1="79.1887" y1="30.7401" x2="79.1887" y2="126.558" gradientUnits="userSpaceOnUse">
<stop stop-color="#91B3FA"/>
<stop offset="1" stop-color="#EDEDED" stop-opacity="0.46"/>
</linearGradient>
<linearGradient id="paint1_linear_6_4672" x1="95.6647" y1="25.0142" x2="95.6647" y2="95.1251" gradientUnits="userSpaceOnUse">
<stop stop-color="#91B3FA"/>
<stop offset="0.53" stop-color="#D1CFCF" stop-opacity="0"/>
<stop offset="1" stop-color="#FE7062"/>
</linearGradient>
<linearGradient id="paint2_linear_6_4672" x1="47.1227" y1="50.9367" x2="48.3774" y2="97.6478" gradientUnits="userSpaceOnUse">
<stop stop-color="#09005D"/>
<stop offset="1" stop-color="#1A0F91"/>
</linearGradient>
<linearGradient id="paint3_linear_6_4672" x1="83.523" y1="110.755" x2="82.2554" y2="20.5265" gradientUnits="userSpaceOnUse">
<stop stop-color="#09005D"/>
<stop offset="1" stop-color="#1A0F91"/>
</linearGradient>
<linearGradient id="paint4_linear_6_4672" x1="36.4719" y1="114.79" x2="108.609" y2="63.6297" gradientUnits="userSpaceOnUse">
<stop stop-color="#4F52FF"/>
<stop offset="1" stop-color="#4042E2"/>
</linearGradient>
<linearGradient id="paint5_linear_6_4672" x1="84.5204" y1="68.2078" x2="81.7935" y2="104.519" gradientUnits="userSpaceOnUse">
<stop stop-color="#FF928E"/>
<stop offset="1" stop-color="#FE7062"/>
</linearGradient>
<linearGradient id="paint6_linear_6_4672" x1="-26.3395" y1="-213.152" x2="-13.3261" y2="-175.451" gradientUnits="userSpaceOnUse">
<stop stop-color="#FF928E"/>
<stop offset="1" stop-color="#FE7062"/>
</linearGradient>
<linearGradient id="paint7_linear_6_4672" x1="-27.8214" y1="-212.64" x2="-14.8081" y2="-174.94" gradientUnits="userSpaceOnUse">
<stop stop-color="#FF928E"/>
<stop offset="1" stop-color="#FE7062"/>
</linearGradient>
<linearGradient id="paint8_linear_6_4672" x1="104.974" y1="57.5034" x2="109.009" y2="65.3299" gradientUnits="userSpaceOnUse">
<stop stop-color="#4F52FF"/>
<stop offset="1" stop-color="#4042E2"/>
</linearGradient>
<linearGradient id="paint9_linear_6_4672" x1="91.2651" y1="57.3738" x2="95.2994" y2="65.2004" gradientUnits="userSpaceOnUse">
<stop stop-color="#4F52FF"/>
<stop offset="1" stop-color="#4042E2"/>
</linearGradient>
<linearGradient id="paint10_linear_6_4672" x1="77.4272" y1="56.923" x2="81.4615" y2="64.7496" gradientUnits="userSpaceOnUse">
<stop stop-color="#4F52FF"/>
<stop offset="1" stop-color="#4042E2"/>
</linearGradient>
<linearGradient id="paint11_linear_6_4672" x1="63.7177" y1="56.2791" x2="67.752" y2="64.1056" gradientUnits="userSpaceOnUse">
<stop stop-color="#4F52FF"/>
<stop offset="1" stop-color="#4042E2"/>
</linearGradient>
<linearGradient id="paint12_linear_6_4672" x1="56.5634" y1="39.236" x2="71.2085" y2="67.6476" gradientUnits="userSpaceOnUse">
<stop stop-color="#FF928E"/>
<stop offset="1" stop-color="#FE7062"/>
</linearGradient>
<linearGradient id="paint13_linear_6_4672" x1="70.2717" y1="39.613" x2="84.9213" y2="68.0331" gradientUnits="userSpaceOnUse">
<stop stop-color="#FF928E"/>
<stop offset="1" stop-color="#FE7062"/>
</linearGradient>
<linearGradient id="paint14_linear_6_4672" x1="83.9806" y1="39.993" x2="98.6331" y2="68.4189" gradientUnits="userSpaceOnUse">
<stop stop-color="#FF928E"/>
<stop offset="1" stop-color="#FE7062"/>
</linearGradient>
<linearGradient id="paint15_linear_6_4672" x1="97.6885" y1="40.4289" x2="112.348" y2="68.8678" gradientUnits="userSpaceOnUse">
<stop stop-color="#FF928E"/>
<stop offset="1" stop-color="#FE7062"/>
</linearGradient>
</defs>
</svg>
