<svg width="196" height="196" viewBox="0 0 196 196" fill="none" xmlns="http://www.w3.org/2000/svg">
<g filter="url(#filter0_f_6_4735)">
<circle cx="98.0041" cy="98.0436" r="59.8864" fill="url(#paint0_linear_6_4735)"/>
</g>
<g filter="url(#filter1_f_6_4735)">
<circle cx="118.599" cy="74.8194" r="43.8193" fill="url(#paint1_linear_6_4735)"/>
</g>
<g filter="url(#filter2_f_6_4735)">
<path d="M101.386 61.2706H97.397V67.4953H101.386V61.2706Z" fill="#263238"/>
<path d="M103.524 63.1325H95.309V56.4234C98.185 55.7149 100.932 55.6715 103.524 56.4234V63.1325Z" fill="#F22FB0"/>
<path d="M103.621 56.4516C103.625 56.4605 103.517 56.5134 103.318 56.6019C103.12 56.693 102.824 56.8039 102.453 56.9203C102.082 57.0393 101.629 57.1481 101.12 57.2363C100.611 57.3172 100.045 57.3732 99.4489 57.3786C98.8528 57.3788 98.286 57.3282 97.7757 57.2522C97.2665 57.169 96.8129 57.0645 96.4404 56.949C96.0674 56.8359 95.7707 56.7281 95.5721 56.6389C95.3722 56.5524 95.2638 56.5005 95.2677 56.4917C95.2776 56.4671 95.7211 56.6536 96.4672 56.8539C96.8395 56.9561 97.2903 57.0494 97.7945 57.1246C98.2998 57.1927 98.8594 57.2386 99.4479 57.2383C100.036 57.2328 100.595 57.1816 101.1 57.1087C101.603 57.0285 102.053 56.9311 102.424 56.8252C103.169 56.6178 103.611 56.427 103.621 56.4516Z" fill="#263238"/>
<path d="M98.0232 63.1136C97.9846 63.1136 97.9532 61.8255 97.9532 60.237C97.9532 58.648 97.9846 57.3601 98.0232 57.3601C98.0618 57.3601 98.0932 58.648 98.0932 60.237C98.0932 61.8255 98.0618 63.1136 98.0232 63.1136Z" fill="#263238"/>
<path d="M99.5863 63.1527C99.5475 63.1527 99.5161 61.8588 99.5161 60.2632C99.5161 58.667 99.5475 57.3734 99.5863 57.3734C99.6249 57.3734 99.6563 58.667 99.6563 60.2632C99.6563 61.8588 99.6249 63.1527 99.5863 63.1527Z" fill="#263238"/>
<path d="M101.149 63.1269C101.111 63.1269 101.079 61.833 101.079 60.2372C101.079 58.641 101.111 57.3474 101.149 57.3474C101.188 57.3474 101.219 58.641 101.219 60.2372C101.219 61.833 101.188 63.1269 101.149 63.1269Z" fill="#263238"/>
<path d="M102.451 63.1263C102.412 63.1263 102.381 61.7277 102.381 60.0031C102.381 58.2779 102.412 56.8797 102.451 56.8797C102.489 56.8797 102.521 58.2779 102.521 60.0031C102.521 61.7277 102.49 63.1263 102.451 63.1263Z" fill="#263238"/>
<path d="M96.5451 63.0868C96.5065 63.0868 96.4751 61.6882 96.4751 59.9636C96.4751 58.2384 96.5065 56.84 96.5451 56.84C96.5837 56.84 96.6151 58.2382 96.6151 59.9636C96.6153 61.6882 96.5839 63.0868 96.5451 63.0868Z" fill="#263238"/>
<path d="M124.099 71.3665L122.106 69.2812L118.852 72.3912L120.845 74.4765L124.099 71.3665Z" fill="#263238"/>
<path d="M124.193 73.4127L120.088 69.1175L123.596 65.7655C125.403 66.9152 126.798 68.3297 127.7 70.0607L124.193 73.4127Z" fill="#F22FB0"/>
<path d="M120.775 69.8364C120.752 69.8127 121.548 69.0067 122.551 68.0366C123.555 67.0661 124.387 66.299 124.411 66.3229C124.434 66.3467 123.639 67.1524 122.635 68.1229C121.631 69.093 120.798 69.8604 120.775 69.8364Z" fill="#263238"/>
<path d="M121.558 70.6551C121.546 70.6427 121.751 70.4377 122.091 70.1151C122.431 69.7926 122.905 69.353 123.433 68.871C123.949 68.4035 124.416 67.9808 124.789 67.6432C124.947 67.5026 125.084 67.3799 125.202 67.2742C125.302 67.1862 125.35 67.1416 125.355 67.141C125.4 67.1831 124.568 67.9963 123.513 68.9598C122.986 69.442 122.502 69.8719 122.148 70.1783C121.794 70.4845 121.569 70.6675 121.558 70.6551Z" fill="#263238"/>
<path d="M122.599 71.7447C122.588 71.7323 122.796 71.5259 123.14 71.2015C123.485 70.8771 123.966 70.4348 124.502 69.9507C125.027 69.4818 125.502 69.0579 125.881 68.7198C126.042 68.5796 126.183 68.4576 126.304 68.3525C126.407 68.2639 126.454 68.2267 126.464 68.2234C126.484 68.2373 126.279 68.4564 125.938 68.7824C125.597 69.1109 125.118 69.5555 124.582 70.0399C124.046 70.5242 123.556 70.9564 123.197 71.2649C122.838 71.5727 122.61 71.7569 122.599 71.7447Z" fill="#263238"/>
<path d="M123.574 72.7369C123.551 72.7129 124.356 71.9121 125.372 70.9484C126.389 69.9845 127.231 69.223 127.254 69.2469C127.277 69.2709 126.471 70.0715 125.455 71.0354C124.439 71.9991 123.596 72.7608 123.574 72.7369Z" fill="#263238"/>
<path d="M73.8407 71.0587L71.678 72.9673L74.6566 76.3423L76.8192 74.4338L73.8407 71.0587Z" fill="#263238"/>
<path d="M75.8904 71.0467L71.4357 74.9775L68.2254 71.3395C69.4458 69.5792 70.9145 68.2413 72.6801 67.4088L75.8904 71.0467Z" fill="#F22FB0"/>
<path d="M72.1814 74.3197C72.1566 74.3418 71.3829 73.5152 70.4535 72.4739C69.5236 71.4321 68.7902 70.57 68.8147 70.5479C68.8395 70.5258 69.613 71.3522 70.5429 72.394C71.4725 73.4353 72.2062 74.2976 72.1814 74.3197Z" fill="#263238"/>
<path d="M73.0307 73.57C73.0179 73.5805 72.8211 73.3676 72.5122 73.0153C72.2035 72.6631 71.7829 72.1716 71.3222 71.6254C70.8753 71.0908 70.4716 70.6076 70.1491 70.2215C70.0149 70.0586 69.8978 69.9165 69.7966 69.7939C69.7128 69.6908 69.6698 69.6406 69.6696 69.6355C69.7136 69.5921 70.4929 70.4557 71.4139 71.548C71.8747 72.0942 72.285 72.5945 72.5772 72.9608C72.8694 73.3271 73.0433 73.5594 73.0307 73.57Z" fill="#263238"/>
<path d="M74.1609 72.5729C74.1481 72.5834 73.95 72.3677 73.6395 72.0104C73.3289 71.6532 72.9062 71.1547 72.4437 70.6005C71.996 70.0568 71.5913 69.5653 71.2685 69.1734C71.1349 69.0066 71.0185 68.8614 70.9183 68.7363C70.8339 68.6297 70.7988 68.581 70.7957 68.5709C70.8103 68.5515 71.0209 68.7658 71.3334 69.1185C71.6481 69.4724 72.0732 69.969 72.536 70.5237C72.9985 71.0781 73.4111 71.5853 73.7049 71.9563C73.9986 72.3272 74.1737 72.5622 74.1609 72.5729Z" fill="#263238"/>
<path d="M75.1908 71.6384C75.1659 71.6603 74.3977 70.8236 73.4753 69.7701C72.5525 68.7162 71.8248 67.8444 71.8498 67.8225C71.8748 67.8006 72.6427 68.6371 73.5655 69.691C74.4879 70.7447 75.2156 71.6168 75.1908 71.6384Z" fill="#263238"/>
<path d="M121.868 120.75C134.708 107.909 134.708 87.0906 121.868 74.25C109.027 61.4094 88.2083 61.4094 75.3677 74.25C62.5271 87.0906 62.5271 107.909 75.3677 120.75C88.2083 133.591 109.027 133.591 121.868 120.75Z" fill="#F22FB0"/>
<path d="M119.978 118.86C131.774 107.063 131.774 87.9367 119.978 76.1399C108.181 64.343 89.0544 64.343 77.2576 76.1399C65.4607 87.9367 65.4607 107.063 77.2576 118.86C89.0544 130.657 108.181 130.657 119.978 118.86Z" fill="white"/>
<path d="M98.6185 127.811C81.9048 127.811 68.3073 114.213 68.3073 97.4996C68.3073 80.7861 81.9048 67.1886 98.6185 67.1886C115.332 67.1886 128.929 80.7861 128.929 97.4996C128.929 114.213 115.332 127.811 98.6185 127.811ZM98.6185 67.3951C82.0186 67.3951 68.5138 80.8999 68.5138 97.4996C68.5138 114.099 82.0186 127.604 98.6185 127.604C115.218 127.604 128.723 114.1 128.723 97.4996C128.723 80.8999 115.218 67.3951 98.6185 67.3951Z" fill="#263238"/>
<path d="M79.6617 85.4374C80.9201 81.5301 83.4996 78.8874 86.9162 76.6125C90.3331 74.3376 94.9928 73.4856 99.083 73.8319V98.1779L79.6617 85.4374Z" fill="#F22FB0"/>
<g opacity="0.8">
<path d="M79.6617 85.4374C80.9201 81.5301 83.4996 78.8874 86.9162 76.6125C90.3331 74.3376 94.9928 73.4856 99.083 73.8319V98.1779L79.6617 85.4374Z" fill="white"/>
</g>
<path d="M96.4679 98.044L82.8799 87.4883L98.7926 94.8256L99.2607 97.6141L96.4679 98.044Z" fill="#F22FB0"/>
<g opacity="0.4">
<path d="M82.8799 87.4883L97.069 95.8318L98.7926 94.8256L82.8799 87.4883Z" fill="black"/>
</g>
<path d="M100.341 100.277C101.786 99.6841 102.477 98.0325 101.884 96.5877C101.292 95.1429 99.6399 94.4521 98.1951 95.0447C96.7503 95.6374 96.0595 97.289 96.6521 98.7338C97.2448 100.179 98.8964 100.869 100.341 100.277Z" fill="#FAFAFA"/>
<path d="M99.2679 94.8323C99.2694 94.8507 99.0158 94.8352 98.5842 94.9469C98.1609 95.0574 97.5394 95.3417 97.0595 95.9787C96.8251 96.2943 96.6265 96.6913 96.5472 97.1485C96.4708 97.6026 96.4863 98.1145 96.6725 98.6012C96.758 98.8461 96.8873 99.0823 97.05 99.2993C97.2096 99.5188 97.4076 99.7179 97.637 99.8821C98.089 100.221 98.6693 100.412 99.2677 100.418C99.8661 100.413 100.447 100.222 100.899 99.8823C101.128 99.7181 101.326 99.5188 101.486 99.2996C101.649 99.0825 101.778 98.8463 101.864 98.6014C102.05 98.1147 102.065 97.6028 101.989 97.1487C101.91 96.6916 101.711 96.2947 101.477 95.979C100.997 95.3419 100.375 95.0578 99.952 94.9473C99.52 94.8352 99.2667 94.8507 99.2679 94.8323C99.2679 94.8323 99.5205 94.797 99.9648 94.8945C100.4 94.9909 101.047 95.2674 101.554 95.9191C101.802 96.2418 102.014 96.6517 102.102 97.1273C102.187 97.5993 102.175 98.1339 101.984 98.6448C101.896 98.9018 101.762 99.1501 101.593 99.3782C101.426 99.6091 101.219 99.8187 100.979 99.9917C100.506 100.349 99.8956 100.552 99.2675 100.557C98.6396 100.551 98.0292 100.349 97.5563 99.9915C97.3164 99.8185 97.1094 99.6089 96.9432 99.378C96.7739 99.1498 96.6401 98.9016 96.5521 98.6446C96.3609 98.1337 96.3491 97.5993 96.434 97.1273C96.5218 96.6519 96.7336 96.2418 96.9814 95.9191C97.4886 95.2674 98.1359 94.9909 98.571 94.8943C99.0154 94.797 99.2679 94.8323 99.2679 94.8323Z" fill="#263238"/>
<path d="M99.268 95.5555C100.43 95.5555 101.372 96.4977 101.372 97.6599C101.372 98.8222 100.43 99.7642 99.268 99.7642C98.1057 99.7642 97.1636 98.822 97.1636 97.6599C97.1636 96.4977 98.1059 95.5555 99.268 95.5555Z" fill="#263238"/>
<path d="M99.1292 96.8305C99.1292 96.8305 98.5495 78.6241 99.3916 74.7842C99.3916 74.7842 100.8 85.8212 99.1292 96.8305Z" fill="#263238"/>
<path d="M97.4826 125.425L97.4463 125.424L97.5274 123.154L97.592 123.157L97.4826 125.425ZM108.817 123.585L107.969 121.478L108.033 121.453L108.848 123.573L108.817 123.585ZM86.3357 122.501L86.3015 122.484L87.3118 120.449L87.3678 120.477L86.3357 122.501ZM118.446 117.277L116.827 115.685L116.869 115.642L118.475 117.248L118.446 117.277ZM77.3529 115.301L77.3191 115.259L79.0794 113.824L79.1091 113.86L77.3529 115.301ZM124.696 107.597L122.567 106.806L122.59 106.747L124.71 107.562L124.696 107.597ZM72.0647 105.068L72.0488 105.01L74.2442 104.427L74.2547 104.466L72.0647 105.068ZM124.189 96.3381L124.187 96.3018L126.454 96.1653L126.458 96.2295L124.189 96.3381ZM124.187 96.2973L124.184 96.2473L126.451 96.1108L126.454 96.1616L124.187 96.2973ZM73.6431 93.9081L71.3973 93.5678L71.4051 93.5171L73.6505 93.8592L73.6431 93.9081ZM121.407 86.0908L121.386 86.0491L123.403 85.0059L123.428 85.0531L121.407 86.0908ZM77.3787 84.0176L75.4681 82.7894L75.4933 82.7501L77.4079 83.9722L77.3787 84.0176ZM114.713 77.9104L114.674 77.879L116.093 76.1052L116.132 76.1366L114.713 77.9104ZM84.8098 76.4951L83.5657 74.5947L83.5997 74.5724L84.8597 76.4622L84.8098 76.4951ZM105.269 73.1429L105.227 73.1317L105.797 70.933L105.852 70.9475L105.269 73.1429ZM94.6607 72.6475L94.2917 70.4062L94.3425 70.398L94.7092 72.6395L94.6607 72.6475Z" fill="#263238"/>
</g>
<defs>
<filter id="filter0_f_6_4735" x="0.0469894" y="0.0865402" width="195.914" height="195.914" filterUnits="userSpaceOnUse" color-interpolation-filters="sRGB">
<feFlood flood-opacity="0" result="BackgroundImageFix"/>
<feBlend mode="normal" in="SourceGraphic" in2="BackgroundImageFix" result="shape"/>
<feGaussianBlur stdDeviation="19.0353" result="effect1_foregroundBlur_6_4735"/>
</filter>
<filter id="filter1_f_6_4735" x="55.7445" y="11.9648" width="125.709" height="125.709" filterUnits="userSpaceOnUse" color-interpolation-filters="sRGB">
<feFlood flood-opacity="0" result="BackgroundImageFix"/>
<feBlend mode="normal" in="SourceGraphic" in2="BackgroundImageFix" result="shape"/>
<feGaussianBlur stdDeviation="9.51767" result="effect1_foregroundBlur_6_4735"/>
</filter>
<filter id="filter2_f_6_4735" x="63.7372" y="53.8756" width="69.761" height="78.5048" filterUnits="userSpaceOnUse" color-interpolation-filters="sRGB">
<feFlood flood-opacity="0" result="BackgroundImageFix"/>
<feBlend mode="normal" in="SourceGraphic" in2="BackgroundImageFix" result="shape"/>
<feGaussianBlur stdDeviation="1" result="effect1_foregroundBlur_6_4735"/>
</filter>
<linearGradient id="paint0_linear_6_4735" x1="98.0041" y1="38.1572" x2="98.0041" y2="157.93" gradientUnits="userSpaceOnUse">
<stop stop-color="#FF7BCA"/>
<stop offset="1" stop-color="#FFC56F" stop-opacity="0.46"/>
</linearGradient>
<linearGradient id="paint1_linear_6_4735" x1="118.599" y1="31.0001" x2="118.599" y2="118.639" gradientUnits="userSpaceOnUse">
<stop stop-color="#F22FB0"/>
<stop offset="1" stop-color="#F58A25" stop-opacity="0"/>
<stop offset="1" stop-color="#7061A3"/>
</linearGradient>
</defs>
</svg>
