<svg width="23" height="23" viewBox="0 0 23 23" fill="none" xmlns="http://www.w3.org/2000/svg">
<path fill-rule="evenodd" clip-rule="evenodd" d="M11.1541 2.94347C11.8918 1.85069 13.335 0.404959 15.4519 0.101948C17.0599 -0.128235 18.7406 0.0671257 20.0245 1.12503C21.3158 2.18904 22.0954 4.03381 22.0954 6.85634C22.0954 9.09053 21.6037 10.7687 21.1034 11.8966C20.8536 12.4598 20.6022 12.8846 20.41 13.1722C20.3393 13.2781 20.2766 13.3654 20.2249 13.4342C20.4413 14.7187 20.4869 15.6613 20.4687 16.3548C20.4543 16.903 20.3968 17.3153 20.3621 17.564C20.3515 17.64 20.343 17.7007 20.3385 17.7453L20.3339 17.7917L20.0973 18.5821L19.8881 19.1585L19.5638 19.8084L19.1429 20.3707L18.6367 20.8215L18.0798 21.167L17.6045 21.4316L17.0702 21.6457L16.7222 21.753L16.2955 21.8599L15.9275 21.9126L15.5279 21.9659H13.6911L13.1596 21.8538L12.1723 21.5599L11.2139 22.2417L8.37538 20.3185L7.4729 19.6905L6.21627 18.5825L5.09768 17.3869L4.59708 16.8101L4.13153 16.2209L3.61675 15.6068L3.13988 14.9781L2.64176 14.2544L2.18867 13.5481L2.17971 13.5314C0.412524 10.2359 0.178466 8.2034 0.0361153 6.96724C0.0339732 6.94864 0.0318518 6.93021 0.0297463 6.91197L0.029622 6.91089L0.0295025 6.90982C-0.0733458 5.98233 0.0756722 4.50954 0.747937 3.15687C1.42932 1.78585 2.65923 0.522607 4.70233 0.106773C6.77279 -0.314631 8.51895 0.584281 9.70666 1.52766C10.3045 2.00247 10.7768 2.50047 11.0996 2.879C11.1183 2.90088 11.1364 2.92238 11.1541 2.94347ZM13.1736 20.8476L13.3972 20.9141L13.7917 20.9974H15.4638L15.793 20.9534L15.7975 20.9528L16.1095 20.9081L16.4626 20.8196L16.7481 20.7316L17.1886 20.5551L17.5904 20.3314L18.0569 20.042L18.428 19.7115L18.7382 19.2971L18.9987 18.7751L19.1794 18.2772L19.3819 17.6008C19.3898 17.5315 19.3999 17.4588 19.4109 17.3794C19.4457 17.13 19.4896 16.8147 19.5024 16.3293C19.5197 15.6695 19.4741 14.7258 19.2356 13.3874L18.786 10.872L16.889 12.2376L15.7154 12.9971L14.6379 13.7408L13.61 14.5552L13.3034 14.8185L13.0213 15.1447L12.8438 15.3818L12.7475 15.594C12.437 16.3564 11.8951 18.2178 11.7357 20.4226C11.7292 20.5129 11.7233 20.6038 11.7181 20.6951L13.3143 19.5596L14.5484 18.0967L13.8871 15.8568L14.814 15.582L15.2925 17.2025L16.7076 15.064L17.7655 12.8717L18.6358 13.2933L17.5494 15.5447L17.0383 16.3169L18.1459 16.1905L18.2554 17.1528L16.3405 17.3715L16.0293 17.8418L13.9736 20.2784L13.1736 20.8476ZM10.7468 20.756L8.92177 19.5195L8.06984 18.9267L6.88972 17.8861L5.81523 16.7377L5.34114 16.1914L4.88072 15.6086L4.37209 15.0019L3.92298 14.4098L3.4464 13.7174L3.02231 13.0564C1.3499 9.93233 1.13225 8.03849 0.998185 6.87192C0.995465 6.84825 0.99278 6.82488 0.990117 6.80181C0.906378 6.04444 1.03043 4.76128 1.61322 3.58863C2.18717 2.4338 3.195 1.40192 4.89475 1.05597C6.56712 0.715584 8.02528 1.42814 9.10618 2.28668C9.6427 2.71283 10.0707 3.1634 10.3647 3.50819C10.5113 3.68012 10.6235 3.82449 10.6982 3.9246C10.7356 3.97462 10.7635 4.0135 10.7815 4.03911C10.7906 4.05192 10.7971 4.06141 10.8012 4.06731C10.8032 4.07025 10.8046 4.07231 10.8053 4.07343L10.8057 4.07397L10.8059 4.07421L10.806 4.07437L11.2699 4.76777L11.6402 4.01946C12.0913 3.10781 13.4556 1.36611 15.5886 1.06079C17.0508 0.851481 18.416 1.05365 19.4105 1.87313C20.3976 2.68649 21.1288 4.19896 21.1288 6.85634C21.1288 8.94381 20.6701 10.4885 20.2201 11.5032C20.1363 11.6921 20.0528 11.8628 19.9724 12.0153L19.4672 9.18894L16.7635 11.1353L14.369 7.08485L9.97504 13.8792L9.72743 14.4581L9.55422 15.0656V15.8043L9.55477 15.8159C9.61484 17.0709 9.9898 19.0051 10.762 20.4927C10.7564 20.58 10.7513 20.6678 10.7468 20.756ZM10.9993 18.4691C11.2462 17.0045 11.607 15.8278 11.8566 15.2182L11.86 15.2098L12.0073 14.885L12.2684 14.5362L12.6199 14.1299L12.9955 13.8073L14.0633 12.9613L15.1789 12.1912L15.9639 11.6832L14.3321 8.92295L10.8311 14.3367L10.6401 14.7833L10.5209 15.2013V15.7809C10.5573 16.518 10.7135 17.5064 10.9993 18.4691Z" fill="white"/>
</svg>
