<svg width="157" height="158" viewBox="0 0 157 158" fill="none" xmlns="http://www.w3.org/2000/svg">
<g filter="url(#filter0_f_6_4517)">
<circle cx="78.5949" cy="78.8629" r="47.9091" fill="url(#paint0_linear_6_4517)"/>
</g>
<g filter="url(#filter1_f_6_4517)">
<circle cx="95.0709" cy="60.2834" r="35.0555" fill="url(#paint1_linear_6_4517)"/>
</g>
<g filter="url(#filter2_f_6_4517)">
<path fill-rule="evenodd" clip-rule="evenodd" d="M22.6914 97.421H139.073C142.466 97.421 145.241 99.9167 145.241 102.966C145.241 106.016 142.465 108.511 139.073 108.511H22.6914C19.2989 108.511 16.5235 106.016 16.5235 102.966C16.5235 99.9167 19.2983 97.421 22.6914 97.421Z" fill="#8C8C8C"/>
<path fill-rule="evenodd" clip-rule="evenodd" d="M29.7086 101.196H132.056C135.04 101.196 137.48 103.549 137.48 106.424C137.48 109.299 135.038 111.651 132.056 111.651H29.7086C26.7255 111.651 24.2845 109.299 24.2845 106.424C24.2845 103.548 26.7255 101.196 29.7086 101.196Z" fill="#616161"/>
<path d="M124.475 59.4492H80.0071V62.1864H124.475V59.4492Z" fill="#BFBFBF"/>
<path d="M74.7419 49.2814H48.1221V101.746H74.7419V49.2814Z" fill="#227482"/>
<path d="M48.6919 48.5919H48.1221V101.746H48.6919V48.5919Z" fill="#DBDBDB"/>
<path d="M55.2048 48.5919H54.635V101.746H55.2048V48.5919Z" fill="#DBDBDB"/>
<path d="M61.7176 48.5919H61.1477V101.746H61.7176V48.5919Z" fill="#DBDBDB"/>
<path d="M68.2293 48.5919H67.6595V101.746H68.2293V48.5919Z" fill="#DBDBDB"/>
<path d="M74.7421 48.5919H74.1723V101.746H74.7421V48.5919Z" fill="#DBDBDB"/>
<path d="M74.7419 100.246H48.1221V101.746H74.7419V100.246Z" fill="#DBDBDB"/>
<path d="M74.7419 92.9189H48.1221V94.4188H74.7419V92.9189Z" fill="#DBDBDB"/>
<path d="M74.7419 85.5926H48.1221V87.0931H74.7419V85.5926Z" fill="#DBDBDB"/>
<path d="M74.7419 78.2663H48.1221V79.7668H74.7419V78.2663Z" fill="#DBDBDB"/>
<path d="M74.7419 70.9394H48.1221V72.4393H74.7419V70.9394Z" fill="#DBDBDB"/>
<path d="M74.7419 63.6131H48.1221V65.1136H74.7419V63.6131Z" fill="#DBDBDB"/>
<path d="M74.7419 56.2862H48.1221V57.7861H74.7419V56.2862Z" fill="#DBDBDB"/>
<path opacity="0.5" d="M74.7419 49.2814H48.1221V52.2104H74.7419V49.2814Z" fill="#878787"/>
<path d="M75.5187 47.2139H47.3438V50.4607H75.5187V47.2139Z" fill="#DBDBDB"/>
<path d="M129.317 75.0421H72.5284V102.076H129.317V75.0421Z" fill="#3CA2AB"/>
<path d="M73.6979 75.4531H73.342V102.075H73.6979V75.4531Z" fill="#DBDBDB"/>
<path d="M86.7228 75.453H86.3669V86.8445H86.7228V75.453Z" fill="#DBDBDB"/>
<path d="M99.7478 75.453H99.3919V87.0166H99.7478V75.453Z" fill="#DBDBDB"/>
<path d="M113.18 75.453H112.824V102.075H113.18V75.453Z" fill="#DBDBDB"/>
<path opacity="0.5" d="M129.317 75.0421H72.5284V77.5415H129.317V75.0421Z" fill="#878787"/>
<path d="M131.954 82.0342H72.5284V83.1487H131.954V82.0342Z" fill="#DBDBDB"/>
<path d="M83.6971 94.8763H72.5282V96.3768H83.6971V94.8763Z" fill="#DBDBDB"/>
<path d="M131.954 89.1974H72.5282V89.8644H131.954V89.1974Z" fill="#DBDBDB"/>
<path d="M131.954 94.8763H110.061V96.3768H131.954V94.8763Z" fill="#DBDBDB"/>
<path d="M131.954 62.1862H72.5284V76.0254H131.954V62.1862Z" fill="#DBDBDB"/>
<path d="M88.0428 86.2229H85.8889V102.075H88.0428V86.2229Z" fill="#A8A8A8"/>
<path d="M105.568 86.2231H103.415V102.075H105.568V86.2231Z" fill="#A8A8A8"/>
<path d="M96.3156 91.2197H95.3678V102.075H96.3156V91.2197Z" fill="#A8A8A8"/>
<path d="M104.005 90.4014H87.6792V91.3493H104.005V90.4014Z" fill="#A8A8A8"/>
<path d="M112.417 81.7236H105.09V102.075H112.417V81.7236Z" fill="#DBDBDB"/>
<path d="M131.954 62.1862H124.627V102.075H131.954V62.1862Z" fill="#DBDBDB"/>
<path d="M79.0396 63.0003H73.342V68.6991H79.0396V63.0003Z" fill="#EDEDED"/>
<path d="M79.0394 69.5129H73.3419V75.2117H79.0394V69.5129Z" fill="#EDEDED"/>
<path d="M85.5534 63H79.8546V68.6988H85.5534V63Z" fill="#EDEDED"/>
<path d="M85.5534 69.5129H79.8546V75.2117H85.5534V69.5129Z" fill="#EDEDED"/>
<path d="M92.0644 63H86.3669V68.6988H92.0644V63Z" fill="#EDEDED"/>
<path d="M92.0644 69.5129H86.3669V75.2117H92.0644V69.5129Z" fill="#EDEDED"/>
<path d="M98.5779 63H92.8792V68.6988H98.5779V63Z" fill="#EDEDED"/>
<path d="M98.5779 69.5129H92.8792V75.2117H98.5779V69.5129Z" fill="#EDEDED"/>
<path d="M105.089 63H99.3919V68.6988H105.089V63Z" fill="#EDEDED"/>
<path d="M105.089 69.5129H99.3919V75.2117H105.089V69.5129Z" fill="#EDEDED"/>
<path d="M111.602 63H105.905V68.6988H111.602V63Z" fill="#EDEDED"/>
<path d="M111.602 69.5129H105.905V75.2117H111.602V69.5129Z" fill="#EDEDED"/>
<path d="M118.115 63H112.417V68.6988H118.115V63Z" fill="#EDEDED"/>
<path d="M124.628 63H118.929V68.6988H124.628V63Z" fill="#EDEDED"/>
<path d="M118.115 69.5129H112.417V75.2117H118.115V69.5129Z" fill="#EDEDED"/>
<path d="M124.628 69.5129H118.929V75.2117H124.628V69.5129Z" fill="#EDEDED"/>
<path d="M131.139 63H125.442V68.6988H131.139V63Z" fill="#EDEDED"/>
<path d="M131.139 69.5129H125.442V75.2117H131.139V69.5129Z" fill="#EDEDED"/>
<path d="M131.14 76.0248H125.442V81.7236H131.14V76.0248Z" fill="#EDEDED"/>
<path d="M131.14 82.5383H125.442V88.2364H131.14V82.5383Z" fill="#EDEDED"/>
<path d="M131.14 89.0505H125.442V94.7493H131.14V89.0505Z" fill="#EDEDED"/>
<path d="M131.14 95.5622H125.442V101.261H131.14V95.5622Z" fill="#EDEDED"/>
<path opacity="0.5" fill-rule="evenodd" clip-rule="evenodd" d="M56.9523 68.6991L72.5279 84.2741V101.746H54.4695L55.0977 98.2786L56.9523 68.6991Z" fill="#878787"/>
<path d="M56.9992 68.6991H30.1353V102.075H56.9992V68.6991Z" fill="#DBDBDB"/>
<path d="M36.6479 69.5124H30.9503V75.2112H36.6479V69.5124Z" fill="#EDEDED"/>
<path d="M43.1601 69.5122H37.4613V75.211H43.1601V69.5122Z" fill="#EDEDED"/>
<path d="M49.6721 69.5122H43.9746V75.211H49.6721V69.5122Z" fill="#EDEDED"/>
<path d="M36.6476 76.0245H30.9501V81.7233H36.6476V76.0245Z" fill="#EDEDED"/>
<path d="M43.1601 76.0245H37.4613V81.7233H43.1601V76.0245Z" fill="#EDEDED"/>
<path d="M49.6721 76.0245H43.9746V81.7233H49.6721V76.0245Z" fill="#EDEDED"/>
<path d="M36.6476 82.538H30.9501V88.2361H36.6476V82.538Z" fill="#EDEDED"/>
<path d="M43.1601 82.538H37.4613V88.2361H43.1601V82.538Z" fill="#EDEDED"/>
<path d="M49.6721 82.538H43.9746V88.2361H49.6721V82.538Z" fill="#EDEDED"/>
<path d="M36.6476 89.0496H30.9501V94.7484H36.6476V89.0496Z" fill="#EDEDED"/>
<path d="M43.1601 89.0496H37.4613V94.7484H43.1601V89.0496Z" fill="#EDEDED"/>
<path d="M49.6721 89.0496H43.9746V94.7484H49.6721V89.0496Z" fill="#EDEDED"/>
<path d="M36.6476 95.5613H30.9501V101.26H36.6476V95.5613Z" fill="#EDEDED"/>
<path d="M43.1601 95.5613H37.4613V101.26H43.1601V95.5613Z" fill="#EDEDED"/>
<path d="M49.6721 95.5613H43.9746V101.26H49.6721V95.5613Z" fill="#EDEDED"/>
<path d="M56.1856 69.5122H50.4868V75.211H56.1856V69.5122Z" fill="#EDEDED"/>
<path d="M56.1856 76.0245H50.4868V81.7233H56.1856V76.0245Z" fill="#EDEDED"/>
<path d="M56.1856 82.538H50.4868V88.2361H56.1856V82.538Z" fill="#EDEDED"/>
<path d="M56.1856 89.0496H50.4868V94.7484H56.1856V89.0496Z" fill="#EDEDED"/>
<path d="M56.1856 95.5613H50.4868V101.26H56.1856V95.5613Z" fill="#EDEDED"/>
<path d="M86.3673 81.7236H79.0401V102.075H86.3673V81.7236Z" fill="#DBDBDB"/>
<path d="M85.5536 89.0505H79.8548V94.7493H85.5536V89.0505Z" fill="#EDEDED"/>
<path d="M85.5537 95.5624H79.8549V101.261H85.5537V95.5624Z" fill="#EDEDED"/>
<path d="M111.603 89.0507H105.905V94.7495H111.603V89.0507Z" fill="#EDEDED"/>
<path d="M111.603 95.5624H105.905V101.261H111.603V95.5624Z" fill="#EDEDED"/>
<path opacity="0.5" fill-rule="evenodd" clip-rule="evenodd" d="M79.0585 89.0877L112.42 81.7556L131.954 101.291V102.075H92.0463L79.0585 89.0877Z" fill="#878787"/>
<path d="M112.417 81.7236H79.0401V89.0501H112.417V81.7236Z" fill="#DBDBDB"/>
<path d="M85.5538 82.5382H79.855V88.2364H85.5538V82.5382Z" fill="#EDEDED"/>
<path d="M111.603 82.5382H105.905V88.2364H111.603V82.5382Z" fill="#EDEDED"/>
<path d="M92.0648 82.5376H86.3672V88.2358H92.0648V82.5376Z" fill="#EDEDED"/>
<path d="M98.5783 82.5377H92.8795V88.2359H98.5783V82.5377Z" fill="#EDEDED"/>
<path d="M105.089 82.5377H99.3918V88.2359H105.089V82.5377Z" fill="#EDEDED"/>
<path opacity="0.5" fill-rule="evenodd" clip-rule="evenodd" d="M73.5709 98.3859L75.4709 97.5861L82.7452 104.86H74.496L73.5709 98.3859Z" fill="#6E6E6E"/>
<path d="M76.0293 98.8765H73.3296V104.082H76.0293V98.8765Z" fill="#E6E6E6"/>
<path d="M76.3078 104.081H73.0511V104.86H76.3078V104.081Z" fill="#D1CFCF"/>
<path fill-rule="evenodd" clip-rule="evenodd" d="M73.3296 98.876H73.6357V98.2637H73.3296V98.876ZM75.7226 98.876H76.0287V98.2637H75.7226V98.876Z" fill="#D1CFCF"/>
<path fill-rule="evenodd" clip-rule="evenodd" d="M73.8814 97.599H75.4765L76.2375 98.3993H73.1198L73.8814 97.599Z" fill="#E6E6E6"/>
<path opacity="0.5" fill-rule="evenodd" clip-rule="evenodd" d="M113.729 101.8L119.797 108.058H111.82L113.729 101.8Z" fill="#6E6E6E"/>
<path opacity="0.5" fill-rule="evenodd" clip-rule="evenodd" d="M129.963 101.8L136.03 108.058H128.053L129.963 101.8Z" fill="#6E6E6E"/>
<path opacity="0.5" fill-rule="evenodd" clip-rule="evenodd" d="M121.76 101.8L127.827 108.058H119.85L121.76 101.8Z" fill="#6E6E6E"/>
<path fill-rule="evenodd" clip-rule="evenodd" d="M119.082 100.579C117.024 100.579 115.356 102.364 115.356 104.565H122.807C122.807 102.363 121.139 100.579 119.082 100.579Z" fill="#5E8F21"/>
<path fill-rule="evenodd" clip-rule="evenodd" d="M119.081 100.579C117.731 100.579 116.636 102.364 116.636 104.564H121.526C121.526 102.363 120.431 100.579 119.081 100.579Z" fill="#71AD28"/>
<path fill-rule="evenodd" clip-rule="evenodd" d="M119.082 100.579C118.82 100.579 118.608 102.364 118.608 104.564H119.554C119.554 102.363 119.342 100.579 119.082 100.579Z" fill="#83C236"/>
<path fill-rule="evenodd" clip-rule="evenodd" d="M127.253 100.539C125.196 100.539 123.528 102.323 123.528 104.524H130.979C130.979 102.323 129.311 100.539 127.253 100.539Z" fill="#5E8F21"/>
<path fill-rule="evenodd" clip-rule="evenodd" d="M127.253 100.539C125.903 100.539 124.808 102.323 124.808 104.524H129.698C129.698 102.323 128.604 100.539 127.253 100.539Z" fill="#71AD28"/>
<path fill-rule="evenodd" clip-rule="evenodd" d="M127.253 100.539C126.992 100.539 126.78 102.323 126.78 104.524H127.726C127.726 102.323 127.515 100.539 127.253 100.539Z" fill="#83C236"/>
<path fill-rule="evenodd" clip-rule="evenodd" d="M110.989 100.498C108.932 100.498 107.263 102.282 107.263 104.483H114.715C114.715 102.282 113.047 100.498 110.989 100.498Z" fill="#5E8F21"/>
<path fill-rule="evenodd" clip-rule="evenodd" d="M110.989 100.498C109.64 100.498 108.545 102.282 108.545 104.483H113.435C113.435 102.282 112.341 100.498 110.989 100.498Z" fill="#71AD28"/>
<path fill-rule="evenodd" clip-rule="evenodd" d="M110.989 100.498C110.728 100.498 110.516 102.282 110.516 104.483H111.462C111.462 102.282 111.251 100.498 110.989 100.498Z" fill="#83C236"/>
<path d="M131.503 104.317H106.62V108.058H131.503V104.317Z" fill="#BFBFBF"/>
<path opacity="0.5" fill-rule="evenodd" clip-rule="evenodd" d="M41.7705 101.8L47.8382 108.058H39.8613L41.7705 101.8Z" fill="#6E6E6E"/>
<path opacity="0.5" fill-rule="evenodd" clip-rule="evenodd" d="M58.004 101.8L64.071 108.058H56.0941L58.004 101.8Z" fill="#6E6E6E"/>
<path opacity="0.5" fill-rule="evenodd" clip-rule="evenodd" d="M49.8004 101.8L55.8686 108.058H47.8912L49.8004 101.8Z" fill="#6E6E6E"/>
<path fill-rule="evenodd" clip-rule="evenodd" d="M47.122 100.58C45.0647 100.58 43.3964 102.364 43.3964 104.565H50.8477C50.8483 102.364 49.18 100.58 47.122 100.58Z" fill="#5E8F21"/>
<path fill-rule="evenodd" clip-rule="evenodd" d="M47.122 100.58C45.7721 100.58 44.6767 102.364 44.6767 104.565H49.5672C49.5678 102.363 48.4724 100.58 47.122 100.58Z" fill="#71AD28"/>
<path fill-rule="evenodd" clip-rule="evenodd" d="M47.1221 100.58C46.8609 100.58 46.6488 102.364 46.6488 104.565H47.5948C47.5954 102.363 47.3834 100.58 47.1221 100.58Z" fill="#83C236"/>
<path fill-rule="evenodd" clip-rule="evenodd" d="M55.295 100.539C53.237 100.539 51.5694 102.323 51.5694 104.524H59.0213C59.0207 102.323 57.353 100.539 55.295 100.539Z" fill="#5E8F21"/>
<path fill-rule="evenodd" clip-rule="evenodd" d="M55.2947 100.539C53.9442 100.539 52.8495 102.323 52.8495 104.524H57.7393C57.74 102.323 56.6452 100.539 55.2947 100.539Z" fill="#71AD28"/>
<path fill-rule="evenodd" clip-rule="evenodd" d="M55.2948 100.539C55.0336 100.539 54.8215 102.323 54.8215 104.524H55.7676C55.7682 102.323 55.5561 100.539 55.2948 100.539Z" fill="#83C236"/>
<path fill-rule="evenodd" clip-rule="evenodd" d="M39.0308 100.498C36.9728 100.498 35.3052 102.282 35.3052 104.483H42.7564C42.757 102.283 41.0888 100.498 39.0308 100.498Z" fill="#5E8F21"/>
<path fill-rule="evenodd" clip-rule="evenodd" d="M39.0303 100.498C37.6805 100.498 36.5857 102.282 36.5857 104.483H41.4756C41.475 102.282 40.3808 100.498 39.0303 100.498Z" fill="#71AD28"/>
<path fill-rule="evenodd" clip-rule="evenodd" d="M39.0304 100.498C38.7692 100.498 38.5577 102.282 38.5577 104.483H39.5038C39.5031 102.282 39.2917 100.498 39.0304 100.498Z" fill="#83C236"/>
<path d="M59.5443 104.317H34.6617V108.058H59.5443V104.317Z" fill="#BFBFBF"/>
</g>
<defs>
<filter id="filter0_f_6_4517" x="0.22921" y="0.497272" width="156.731" height="156.731" filterUnits="userSpaceOnUse" color-interpolation-filters="sRGB">
<feFlood flood-opacity="0" result="BackgroundImageFix"/>
<feBlend mode="normal" in="SourceGraphic" in2="BackgroundImageFix" result="shape"/>
<feGaussianBlur stdDeviation="15.2283" result="effect1_foregroundBlur_6_4517"/>
</filter>
<filter id="filter1_f_6_4517" x="44.7872" y="9.99967" width="100.567" height="100.567" filterUnits="userSpaceOnUse" color-interpolation-filters="sRGB">
<feFlood flood-opacity="0" result="BackgroundImageFix"/>
<feBlend mode="normal" in="SourceGraphic" in2="BackgroundImageFix" result="shape"/>
<feGaussianBlur stdDeviation="7.61414" result="effect1_foregroundBlur_6_4517"/>
</filter>
<filter id="filter2_f_6_4517" x="14.5235" y="45.2139" width="132.718" height="68.4372" filterUnits="userSpaceOnUse" color-interpolation-filters="sRGB">
<feFlood flood-opacity="0" result="BackgroundImageFix"/>
<feBlend mode="normal" in="SourceGraphic" in2="BackgroundImageFix" result="shape"/>
<feGaussianBlur stdDeviation="1" result="effect1_foregroundBlur_6_4517"/>
</filter>
<linearGradient id="paint0_linear_6_4517" x1="78.5949" y1="30.9538" x2="78.5949" y2="126.772" gradientUnits="userSpaceOnUse">
<stop stop-color="#3CA2AB"/>
<stop offset="1" stop-color="#EDEDED" stop-opacity="0.46"/>
</linearGradient>
<linearGradient id="paint1_linear_6_4517" x1="95.0709" y1="25.2279" x2="95.0709" y2="95.3388" gradientUnits="userSpaceOnUse">
<stop stop-color="#3CA2AB"/>
<stop offset="0.53" stop-color="#D1CFCF" stop-opacity="0"/>
<stop offset="1" stop-color="#83C236"/>
</linearGradient>
</defs>
</svg>
