<svg width="120" height="24" viewBox="0 0 120 24" fill="none" xmlns="http://www.w3.org/2000/svg">
<path d="M114.177 11.925L117.933 5.96201H119.782L115.131 13.4455L119.782 20.8695H117.814L114.177 14.9661L110.509 20.8695H108.512L113.193 13.4455L108.512 5.96201H110.45L114.177 11.925Z" fill="#00AEAB"/>
<path d="M104.608 20.8695V5.96201H106.307V20.8695H104.608ZM98.2574 11.8355C99.0525 11.8355 99.7879 12.0144 100.464 12.3722C101.159 12.7101 101.716 13.217 102.133 13.8928C102.571 14.5487 102.789 15.3636 102.789 16.3376C102.789 17.1525 102.59 17.9277 102.193 18.6632C101.815 19.3986 101.219 19.9949 100.404 20.4521C99.609 20.8893 98.5854 21.108 97.3331 21.108C96.8362 21.108 96.3194 21.098 95.7828 21.0782C95.2461 21.0583 94.7293 21.0285 94.2324 20.9887C93.7553 20.9688 93.3081 20.939 92.8907 20.8993C92.4932 20.8794 92.1553 20.8595 91.877 20.8396C91.5987 20.7999 91.4198 20.78 91.3403 20.78V5.96201H93.0398V11.8355H98.2574ZM97.035 19.5278C97.8698 19.5278 98.5854 19.3986 99.1817 19.1402C99.7978 18.8619 100.275 18.4843 100.613 18.0072C100.951 17.5302 101.12 17.0035 101.12 16.427C101.12 15.8506 101.03 15.3736 100.851 14.9959C100.672 14.5984 100.434 14.2903 100.136 14.0717C99.8575 13.853 99.5593 13.7039 99.2413 13.6244C98.9431 13.5251 98.6649 13.4754 98.4065 13.4754H93.0398V19.4085C93.0398 19.4085 93.1491 19.4185 93.3678 19.4383C93.6063 19.4383 93.9144 19.4483 94.292 19.4682C94.6895 19.488 95.1268 19.5079 95.6039 19.5278C96.0809 19.5278 96.5579 19.5278 97.035 19.5278Z" fill="#00AEAB"/>
<path d="M88.1813 19.17H89.8509V24H88.4794L88.1813 20.8695H76.9709L76.6727 24H75.3311V19.17H77.0305L79.7138 10.2255C79.8132 9.90751 79.9424 9.50998 80.1014 9.03294C80.2604 8.5559 80.499 8.0888 80.817 7.63164C81.135 7.1546 81.5723 6.75707 82.1289 6.43904C82.7053 6.12102 83.4407 5.96201 84.3352 5.96201H88.1813V19.17ZM78.7001 19.17H86.4818V7.5422H84.514C84.0768 7.5422 83.6991 7.59189 83.3811 7.69127C83.0631 7.77078 82.7848 7.89997 82.5463 8.07886C82.3276 8.25775 82.1388 8.4764 81.9798 8.73479C81.8406 8.99319 81.7214 9.2814 81.622 9.59942L78.7001 19.17Z" fill="#00AEAB"/>
<path d="M70.5434 16.9041C70.5434 17.4407 70.6129 17.9079 70.7521 18.3054C70.9111 18.7029 71.1297 19.0408 71.408 19.3191C71.7061 19.5974 72.0739 19.816 72.5111 19.975L72.0341 21.2571C71.4776 21.098 71.0005 20.8893 70.603 20.6309C70.2055 20.3726 69.8775 20.0744 69.6191 19.7365C69.3607 19.3787 69.1719 18.9712 69.0526 18.5141C68.9333 18.037 68.8737 17.5004 68.8737 16.9041V7.5422H65.2661V5.96201H74.3298V7.5422H70.5434V16.9041Z" fill="#00AEAB"/>
<path d="M63.6658 15.3548C63.6658 17.1039 63.2186 18.5151 62.3241 19.5885C61.4297 20.6419 60.0781 21.1687 58.2693 21.1687C57.0369 21.1687 55.9934 20.9103 55.1387 20.3935C54.3039 19.8568 53.6778 19.1512 53.2604 18.2766C52.843 17.4021 52.6343 16.4281 52.6343 15.3548V11.449C52.6343 10.1769 52.8529 9.11351 53.2902 8.25881C53.7275 7.38424 54.3635 6.72831 55.1984 6.29103C56.0332 5.83387 57.0369 5.60529 58.2097 5.60529C59.9787 5.60529 61.3303 6.12208 62.2645 7.15566C63.1987 8.18924 63.6658 9.62036 63.6658 11.449V15.3548ZM61.9962 11.449C61.9962 10.4949 61.867 9.69987 61.6086 9.06382C61.3502 8.40789 60.9427 7.92091 60.3862 7.60288C59.8495 7.26498 59.1439 7.09603 58.2693 7.09603C57.3947 7.09603 56.6593 7.26498 56.063 7.60288C55.4866 7.92091 55.0493 8.40789 54.7511 9.06382C54.453 9.69987 54.3039 10.4949 54.3039 11.449V15.6529C54.3039 16.448 54.4629 17.1536 54.781 17.7698C55.1189 18.3661 55.586 18.8332 56.1823 19.1711C56.7785 19.509 57.4742 19.6779 58.2693 19.6779C59.1041 19.6779 59.7998 19.5189 60.3563 19.2009C60.9129 18.863 61.3204 18.3959 61.5788 17.7996C61.857 17.1834 61.9962 16.4679 61.9962 15.6529V11.449Z" fill="#00AEAB"/>
<path d="M40.1261 0.952972V1.16168C40.1261 1.77785 39.977 2.34434 39.6788 2.86113C39.3807 3.35804 38.9732 3.76551 38.4564 4.08354C37.9595 4.38169 37.403 4.53076 36.7868 4.53076C36.1706 4.53076 35.6041 4.38169 35.0873 4.08354C34.5705 3.76551 34.1531 3.35804 33.8351 2.86113C33.537 2.34434 33.3879 1.77785 33.3879 1.16168V0.952972H34.7296V1.16168C34.7296 1.71822 34.9283 2.19526 35.3259 2.59279C35.7433 2.99032 36.2302 3.18909 36.7868 3.18909C37.3632 3.18909 37.8402 2.99032 38.2179 2.59279C38.5956 2.19526 38.7844 1.71822 38.7844 1.16168V0.952972H40.1261ZM32.9407 5.96188V18.3351L40.1857 5.96188H42.2429V20.8693H40.5435V8.49615L33.2984 20.8693H31.2412V5.96188H32.9407Z" fill="#00AEAB"/>
<path d="M29.1936 15.3548C29.1936 17.1039 28.7464 18.5151 27.852 19.5885C26.9575 20.6419 25.6059 21.1687 23.7971 21.1687C22.5648 21.1687 21.5213 20.9103 20.6666 20.3935C19.8317 19.8568 19.2056 19.1512 18.7882 18.2766C18.3708 17.4021 18.1621 16.4281 18.1621 15.3548V11.449C18.1621 10.1769 18.3808 9.11351 18.818 8.25881C19.2553 7.38424 19.8914 6.72831 20.7262 6.29103C21.561 5.83387 22.5648 5.60529 23.7375 5.60529C25.5065 5.60529 26.8581 6.12208 27.7923 7.15566C28.7265 8.18924 29.1936 9.62036 29.1936 11.449V15.3548ZM27.524 11.449C27.524 10.4949 27.3948 9.69987 27.1364 9.06382C26.878 8.40789 26.4705 7.92091 25.914 7.60288C25.3773 7.26498 24.6717 7.09603 23.7971 7.09603C22.9226 7.09603 22.1871 7.26498 21.5908 7.60288C21.0144 7.92091 20.5771 8.40789 20.279 9.06382C19.9808 9.69987 19.8317 10.4949 19.8317 11.449V15.6529C19.8317 16.448 19.9908 17.1536 20.3088 17.7698C20.6467 18.3661 21.1138 18.8332 21.7101 19.1711C22.3064 19.509 23.0021 19.6779 23.7971 19.6779C24.6319 19.6779 25.3276 19.5189 25.8842 19.2009C26.4407 18.863 26.8482 18.3959 27.1066 17.7996C27.3849 17.1834 27.524 16.4679 27.524 15.6529V11.449Z" fill="#00AEAB"/>
<path d="M1.69945 0L7.96058 18.3064L14.341 0H16.0106V20.8704H14.341V4.91946L8.88485 20.8704H7.06614L1.69945 4.91946V20.8704H0V0H1.69945Z" fill="#00AEAB"/>
</svg>
