<svg width="24" height="24" viewBox="0 0 24 24" fill="none" xmlns="http://www.w3.org/2000/svg">
<path d="M12 -6.10352e-05C5.3725 -6.10352e-05 0 5.37244 0 11.9999C0 18.6274 5.3725 23.9999 12 23.9999C18.6275 23.9999 24 18.6274 24 11.9999C24 5.37244 18.6275 -6.10352e-05 12 -6.10352e-05ZM16.615 13.5387C16.615 13.5387 17.6762 14.5862 17.9375 15.0724C17.945 15.0824 17.9488 15.0924 17.9513 15.0974C18.0575 15.2762 18.0825 15.4149 18.03 15.5187C17.9425 15.6912 17.6425 15.7762 17.54 15.7837H15.665C15.535 15.7837 15.2625 15.7499 14.9325 15.5224C14.6787 15.3449 14.4288 15.0537 14.185 14.7699C13.8213 14.3474 13.5063 13.9824 13.1888 13.9824C13.1484 13.9824 13.1083 13.9887 13.07 14.0012C12.83 14.0787 12.5225 14.4212 12.5225 15.3337C12.5225 15.6187 12.2975 15.7824 12.1388 15.7824H11.28C10.9875 15.7824 9.46375 15.6799 8.11375 14.2562C6.46125 12.5124 4.97375 9.01494 4.96125 8.98244C4.8675 8.75619 5.06125 8.63494 5.2725 8.63494H7.16625C7.41875 8.63494 7.50125 8.78869 7.55875 8.92494C7.62625 9.08369 7.87375 9.71494 8.28 10.4249C8.93875 11.5824 9.3425 12.0524 9.66625 12.0524C9.72696 12.0517 9.78658 12.0363 9.84 12.0074C10.2625 11.7724 10.1837 10.2662 10.165 9.95369C10.165 9.89494 10.1637 9.27994 9.9475 8.98494C9.7925 8.77119 9.52875 8.68994 9.36875 8.65994C9.43351 8.57058 9.51883 8.49812 9.6175 8.44869C9.9075 8.30369 10.43 8.28244 10.9488 8.28244H11.2375C11.8 8.28994 11.945 8.32619 12.1488 8.37744C12.5613 8.47619 12.57 8.74244 12.5338 9.65369C12.5225 9.91244 12.5113 10.2049 12.5113 10.5499C12.5113 10.6249 12.5075 10.7049 12.5075 10.7899C12.495 11.2537 12.48 11.7799 12.8075 11.9962C12.8502 12.023 12.8996 12.0373 12.95 12.0374C13.0638 12.0374 13.4062 12.0374 14.3337 10.4462C14.6198 9.93401 14.8684 9.40178 15.0775 8.85369C15.0963 8.82119 15.1513 8.72119 15.2163 8.68244C15.2642 8.65798 15.3174 8.64554 15.3713 8.64619H17.5975C17.84 8.64619 18.0063 8.68244 18.0375 8.77619C18.0925 8.92494 18.0275 9.37869 17.0112 10.7549L16.5575 11.3537C15.6363 12.5612 15.6363 12.6224 16.615 13.5387Z" fill="#1F1F1F" fill-opacity="0.4"/>
</svg>
