<svg width="24" height="24" viewBox="0 0 24 24" fill="none" xmlns="http://www.w3.org/2000/svg">
<g clip-path="url(#clip0_10_1209)">
<g clip-path="url(#clip1_10_1209)">
<path d="M12.1236 5.68121C8.71675 5.68121 5.95703 8.4219 5.95703 11.8097C5.95703 13.0494 6.33604 14.2231 6.98672 15.1929C7.07797 15.329 7.10547 15.4993 7.05251 15.6542L6.67819 16.7498C6.54532 17.1387 6.91231 17.5129 7.30373 17.3877L8.50642 17.0028C8.65136 16.9564 8.80885 16.9797 8.93887 17.0588C9.86902 17.6245 10.9728 17.9382 12.1426 17.9382C15.5494 17.9382 18.3282 15.1975 18.3282 11.8097C18.3091 8.4219 15.5304 5.68121 12.1236 5.68121ZM15.7397 14.341C15.5875 14.7597 14.8452 15.1594 14.5217 15.1975C14.1981 15.2355 14.1981 15.4639 12.352 14.7597C10.5248 14.0365 9.36385 12.1903 9.26869 12.0571C9.17353 11.9429 8.52642 11.0864 8.52642 10.211C8.52642 9.33546 8.9832 8.89771 9.15449 8.72642C9.32579 8.55512 9.51611 8.49803 9.63031 8.49803C9.7445 8.49803 9.87773 8.51706 9.97289 8.51706C10.0871 8.51706 10.2203 8.45996 10.3726 8.82158C10.5248 9.1832 10.8865 10.0587 10.9245 10.1539C10.9626 10.249 11.0006 10.3442 10.9436 10.4584C10.8936 10.5582 10.8583 10.6289 10.7993 10.7214C10.7816 10.7492 10.7603 10.7744 10.738 10.7986C10.6545 10.8892 10.5728 11.0004 10.5058 11.0674C10.4106 11.1626 10.3155 11.2577 10.4297 11.429C10.5439 11.6003 10.9055 12.1903 11.4384 12.6661C12.1236 13.2752 12.7136 13.4655 12.8849 13.5607C13.0562 13.6558 13.1704 13.6368 13.2655 13.5226C13.3797 13.4084 13.7223 13.0087 13.8365 12.8184C13.9507 12.6471 14.0839 12.6661 14.2362 12.7232C14.4075 12.7803 15.283 13.2181 15.4733 13.3133C15.5701 13.367 15.6547 13.4026 15.7169 13.437C15.793 13.4792 15.8452 13.5609 15.8505 13.6477C15.8596 13.7955 15.8308 14.0549 15.7397 14.341Z" fill="#1F1F1F" fill-opacity="0.4"/>
<path d="M17.9667 0.00952148H6.01427C2.70262 0.00952148 0 2.71214 0 6.0238V17.9952C0 21.2879 2.70262 23.9905 6.01427 23.9905H17.9857C21.2974 23.9905 24 21.2879 24 17.9762V6.0238C23.981 2.71214 21.2784 0.00952148 17.9667 0.00952148ZM12.1237 19.0991C10.9058 19.0991 9.77214 18.8126 8.75449 18.2871C8.63237 18.2241 8.49042 18.2092 8.35943 18.2508L5.43669 19.1795C5.0455 19.3038 4.67946 18.9298 4.8121 18.5414L5.74867 15.7986C5.79639 15.6588 5.77902 15.5056 5.70681 15.3768C5.11337 14.3182 4.77716 13.0976 4.77716 11.8097C4.77716 7.77479 8.06979 4.52023 12.1237 4.52023C16.1776 4.52023 19.4703 7.77479 19.4703 11.8097C19.4703 15.8446 16.1776 19.0991 12.1237 19.0991Z" fill="#1F1F1F" fill-opacity="0.4"/>
</g>
</g>
<defs>
<clipPath id="clip0_10_1209">
<rect width="24" height="24" fill="white"/>
</clipPath>
<clipPath id="clip1_10_1209">
<rect width="24" height="24" rx="12" fill="white"/>
</clipPath>
</defs>
</svg>
